<svg width="120" height="25" viewBox="0 0 120 25" fill="none" xmlns="http://www.w3.org/2000/svg">
<path d="M11.4385 2.48961C11.6682 2.02625 12.3318 2.02625 12.5615 2.48961L15.1666 7.74531C15.2578 7.92931 15.4341 8.05685 15.638 8.08635L21.4632 8.92914C21.9768 9.00345 22.1819 9.63184 21.8102 9.99251L17.5951 14.0835C17.4475 14.2267 17.3802 14.4331 17.415 14.6353L18.4101 20.4119C18.4978 20.9212 17.9609 21.3095 17.5016 21.0691L12.2914 18.3418C12.109 18.2463 11.891 18.2463 11.7086 18.3418L6.49841 21.0691C6.03907 21.3095 5.50221 20.9212 5.58993 20.4119L6.585 14.6353C6.61983 14.4331 6.5525 14.2267 6.40493 14.0835L2.18977 9.99251C1.81815 9.63184 2.02321 9.00345 2.53678 8.92914L8.36198 8.08635C8.56592 8.05685 8.74221 7.92931 8.83342 7.74531L11.4385 2.48961Z" fill="#FFB219"/>
<path d="M35.4385 2.48961C35.6682 2.02625 36.3318 2.02625 36.5615 2.48961L39.1666 7.74531C39.2578 7.92931 39.4341 8.05685 39.638 8.08635L45.4632 8.92914C45.9768 9.00345 46.1819 9.63184 45.8102 9.99251L41.5951 14.0835C41.4475 14.2267 41.3802 14.4331 41.415 14.6353L42.4101 20.4119C42.4978 20.9212 41.9609 21.3095 41.5016 21.0691L36.2914 18.3418C36.109 18.2463 35.891 18.2463 35.7086 18.3418L30.4984 21.0691C30.0391 21.3095 29.5022 20.9212 29.5899 20.4119L30.585 14.6353C30.6198 14.4331 30.5525 14.2267 30.4049 14.0835L26.1898 9.99251C25.8181 9.63184 26.0232 9.00345 26.5368 8.92914L32.362 8.08635C32.5659 8.05685 32.7422 7.92931 32.8334 7.74531L35.4385 2.48961Z" fill="#FFB219"/>
<path d="M59.4385 2.48961C59.6682 2.02625 60.3318 2.02625 60.5615 2.48961L63.1666 7.74531C63.2578 7.92931 63.4341 8.05685 63.638 8.08635L69.4632 8.92914C69.9768 9.00345 70.1819 9.63184 69.8102 9.99251L65.5951 14.0835C65.4475 14.2267 65.3802 14.4331 65.415 14.6353L66.4101 20.4119C66.4978 20.9212 65.9609 21.3095 65.5016 21.0691L60.2914 18.3418C60.109 18.2463 59.891 18.2463 59.7086 18.3418L54.4984 21.0691C54.0391 21.3095 53.5022 20.9212 53.5899 20.4119L54.585 14.6353C54.6198 14.4331 54.5525 14.2267 54.4049 14.0835L50.1898 9.99251C49.8181 9.63184 50.0232 9.00345 50.5368 8.92914L56.362 8.08635C56.5659 8.05685 56.7422 7.92931 56.8334 7.74531L59.4385 2.48961Z" fill="#FFB219"/>
<path d="M83.4385 2.48961C83.6682 2.02625 84.3318 2.02625 84.5615 2.48961L87.1666 7.74531C87.2578 7.92931 87.4341 8.05685 87.638 8.08635L93.4632 8.92914C93.9768 9.00345 94.1819 9.63184 93.8102 9.99251L89.5951 14.0835C89.4475 14.2267 89.3802 14.4331 89.415 14.6353L90.4101 20.4119C90.4978 20.9212 89.9609 21.3095 89.5016 21.0691L84.2914 18.3418C84.109 18.2463 83.891 18.2463 83.7086 18.3418L78.4984 21.0691C78.0391 21.3095 77.5022 20.9212 77.5899 20.4119L78.585 14.6353C78.6198 14.4331 78.5525 14.2267 78.4049 14.0835L74.1898 9.99251C73.8181 9.63184 74.0232 9.00345 74.5368 8.92914L80.362 8.08635C80.5659 8.05685 80.7422 7.92931 80.8334 7.74531L83.4385 2.48961Z" fill="#FFB219"/>
<path d="M107.439 2.48961C107.668 2.02625 108.332 2.02625 108.561 2.48961L111.167 7.74531C111.258 7.92931 111.434 8.05685 111.638 8.08635L117.463 8.92914C117.977 9.00345 118.182 9.63184 117.81 9.99251L113.595 14.0835C113.448 14.2267 113.38 14.4331 113.415 14.6353L114.41 20.4119C114.498 20.9212 113.961 21.3095 113.502 21.0691L108.291 18.3418C108.109 18.2463 107.891 18.2463 107.709 18.3418L102.498 21.0691C102.039 21.3095 101.502 20.9212 101.59 20.4119L102.585 14.6353C102.62 14.4331 102.552 14.2267 102.405 14.0835L98.1898 9.99251C97.8181 9.63184 98.0232 9.00345 98.5368 8.92914L104.362 8.08635C104.566 8.05685 104.742 7.92931 104.833 7.74531L107.439 2.48961Z" fill="#CED2DA"/>
</svg>
