<svg width="20" height="20" viewBox="0 0 20 20" fill="none" xmlns="http://www.w3.org/2000/svg">
<path d="M9.43853 0.489606C9.6682 0.0262506 10.3318 0.0262514 10.5615 0.489607L13.1666 5.74531C13.2578 5.92931 13.4341 6.05685 13.638 6.08635L19.4632 6.92914C19.9768 7.00345 20.1819 7.63184 19.8102 7.99251L15.5951 12.0835C15.4475 12.2267 15.3802 12.4331 15.415 12.6353L16.4101 18.4119C16.4978 18.9212 15.9609 19.3095 15.5016 19.0691L10.2914 16.3418C10.109 16.2463 9.89104 16.2463 9.70864 16.3418L4.49841 19.0691C4.03907 19.3095 3.50221 18.9212 3.58993 18.4119L4.585 12.6353C4.61983 12.4331 4.5525 12.2267 4.40493 12.0835L0.189768 7.99251C-0.181851 7.63184 0.0232136 7.00345 0.536777 6.92914L6.36198 6.08635C6.56592 6.05685 6.74221 5.92931 6.83342 5.74531L9.43853 0.489606Z" fill="#CED2DA"/>
</svg>
